<svg xmlns="http://www.w3.org/2000/svg" width="894" height="894" viewBox="130 85 764 850">
  <!-- Layer 1: Outline (bottom) -->
  <path fill="#f3f5fe" stroke="#f3f5fe" stroke-width="85" stroke-linejoin="round" stroke-linecap="round" d="M349 129.3c-23.9 5.4-36.8 31.5-26.1 53.2 8 16.2 25.2 24.4 42.1 20.1 7.4-1.9 5.3-3.4 18.5 13.9 10.3 13.6 33.6 44.2 36.7 48.4 3.5 4.6 3.5 4.6-1.1 8.9-5.9 5.6-14.1 16.9-19 26-5 9.4-3.4 8.6-22.1 10.2-136.2 11.1-177 34.7-192.6 111.5-16.5 81.2-16.5 193.6.1 276.7 10.5 52.9 39.8 83.7 89.3 93.9 6 1.3 6 1.3 2.5 8.8-18.4 39.4-5.4 73.1 30 78.1 24.5 3.5 32.3-1.8 73.7-50 20.8-24.3 16.8-22.1 37-20.5 50.9 4.1 138.2 4.1 189 0 20.2-1.6 16.2-3.8 37 20.5 41.4 48.2 49.2 53.5 73.7 50 35.4-5 48.4-38.7 30-78.1-3.5-7.5-3.5-7.5 2.5-8.8 49.5-10.2 78.8-41 89.3-93.9 16.6-83.1 16.6-195.5.1-276.7C824 344.7 783.2 321.1 647 310c-18.7-1.6-17.1-.8-22.1-10.2-4.9-9.1-13.1-20.4-19-26-4.6-4.3-4.6-4.3-1.1-8.9 3.1-4.2 26.4-34.8 36.7-48.4 13.2-17.3 11.1-15.8 18.5-13.9 41.5 10.6 64.2-49.2 26.3-69.3-32-17.1-68 17.2-51.7 49.3 3.1 6.1 3.1 6.1-11.8 25.5-8.2 10.7-20 26-26.1 34.1-11.1 14.8-11.1 14.8-14.7 12.6-44.5-26.5-94.5-26.5-139 0-3.6 2.2-3.6 2.2-14.7-12.6-6.1-8.1-17.9-23.4-26.1-34.1-14.9-19.4-14.9-19.4-11.8-25.5 13.8-27.1-11.7-59.8-41.4-53.3Z"/>

  <!-- Layer 2: Body (middle) -->
  <path fill="#000" d="M349 129.3c-23.9 5.4-36.8 31.5-26.1 53.2 8 16.2 25.2 24.4 42.1 20.1 7.4-1.9 5.3-3.4 18.5 13.9 10.3 13.6 33.6 44.2 36.7 48.4 3.5 4.6 3.5 4.6-1.1 8.9-5.9 5.6-14.1 16.9-19 26-5 9.4-3.4 8.6-22.1 10.2-136.2 11.1-177 34.7-192.6 111.5-16.5 81.2-16.5 193.6.1 276.7 10.5 52.9 39.8 83.7 89.3 93.9 6 1.3 6 1.3 2.5 8.8-18.4 39.4-5.4 73.1 30 78.1 24.5 3.5 32.3-1.8 73.7-50 20.8-24.3 16.8-22.1 37-20.5 50.9 4.1 138.2 4.1 189 0 20.2-1.6 16.2-3.8 37 20.5 41.4 48.2 49.2 53.5 73.7 50 35.4-5 48.4-38.7 30-78.1-3.5-7.5-3.5-7.5 2.5-8.8 49.5-10.2 78.8-41 89.3-93.9 16.6-83.1 16.6-195.5.1-276.7C824 344.7 783.2 321.1 647 310c-18.7-1.6-17.1-.8-22.1-10.2-4.9-9.1-13.1-20.4-19-26-4.6-4.3-4.6-4.3-1.1-8.9 3.1-4.2 26.4-34.8 36.7-48.4 13.2-17.3 11.1-15.8 18.5-13.9 41.5 10.6 64.2-49.2 26.3-69.3-32-17.1-68 17.2-51.7 49.3 3.1 6.1 3.1 6.1-11.8 25.5-8.2 10.7-20 26-26.1 34.1-11.1 14.8-11.1 14.8-14.7 12.6-44.5-26.5-94.5-26.5-139 0-3.6 2.2-3.6 2.2-14.7-12.6-6.1-8.1-17.9-23.4-26.1-34.1-14.9-19.4-14.9-19.4-11.8-25.5 13.8-27.1-11.7-59.8-41.4-53.3m249.3 243.2C752 381.3 773.8 399.3 781.1 523c5.8 98.9-9.4 168.3-41.5 189.8-59.5 39.8-394.7 39.8-454.2 0-32.1-21.5-47.3-90.9-41.5-189.8 7.7-130.5 28.8-144.8 226.1-152.4 19.3-.8 104.3.5 128.3 1.9"/>

  <!-- Layer 3: Eyes (top) - Centered in screen (512, 550) -->
  <rect fill="#000" x="372" y="482" width="82" height="136" rx="41" ry="41"/>
  <rect fill="#000" x="570" y="482" width="82" height="136" rx="41" ry="41"/>
</svg>
